<svg viewBox="0 0 291.98 299.498" width="291.98" height="299.498" xmlns="http://www.w3.org/2000/svg">
<path d="M 445 292 m -18.588 0 a 18.588 18.588 0 1 0 37.176 0 a 18.588 18.588 0 1 0 -37.176 0 Z M 445 292 m -9.48 0 a 9.48 9.48 0 0 1 18.96 0 a 9.48 9.48 0 0 1 -18.96 0 Z" data-bx-shape="ring 445 292 9.48 9.48 18.588 18.588 1@0e1c052e" style="fill: rgb(232, 181, 13);" transform="matrix(-0.447214, 0.894427, -0.894427, -0.447214, 635.244446, -34.743355)"></path>
<path d="M 445 292 m -18.588 0 a 18.588 18.588 0 1 0 37.176 0 a 18.588 18.588 0 1 0 -37.176 0 Z M 445 292 m -9.48 0 a 9.48 9.48 0 0 1 18.96 0 a 9.48 9.48 0 0 1 -18.96 0 Z" data-bx-shape="ring 445 292 9.48 9.48 18.588 18.588 1@0e1c052e" style="fill: rgb(232, 181, 13);" transform="matrix(-0.447214, 0.894427, -0.894427, -0.447214, 635.244446, -167.331467)"></path>
<path style="fill: rgba(0, 0, 0, 0); stroke-width: 9px; stroke: rgb(61, 129, 193);" d="M 29.922 157.887 L 38.583 157.887 C 47.243 157.887 64.565 157.887 74.02 145.686 C 83.474 133.485 85.063 109.083 95.731 96.583 C 106.4 84.083 126.148 83.484 136.022 83.185 L 145.896 82.886" data-bx-d="M 29.922 157.887 U 81.886 157.887 U 86.651 84.681 U 145.896 82.886 1@41d9b4e0" data-bx-origin="0.276596 0.493333" transform="matrix(0, -1, 1, 0, -57.88652, 181.886414)"></path>
<path style="stroke-width: 9px; fill: rgba(0, 0, 0, 0); stroke: rgb(232, 181, 13);" d="M 87.319 150.621 L 91.286 150.568 C 95.253 150.515 103.186 150.409 107.422 126.353 C 111.658 102.297 112.196 54.29 115.639 29.136 C 119.081 3.981 125.428 1.677 128.602 0.526 L 131.775 -0.626" data-bx-d="M 87.319 150.621 U 111.12 150.303 U 112.734 6.284 U 131.775 -0.626 1@95df933e" data-bx-origin="0.276596 0.493333" transform="matrix(0, -1, 1, 0, 25.626209, 173.604492)"></path>
<path style="stroke-width: 9px; fill: rgba(0, 0, 0, 0); stroke: rgb(232, 181, 13);" d="M 87.628 185.142 L 92.712 185.203 C 97.797 185.265 107.965 185.387 111.98 208.836 C 115.995 232.286 113.857 279.061 117.24 304.276 C 120.622 329.491 129.526 333.145 133.978 334.972 L 138.43 336.799" data-bx-d="M 87.628 185.142 U 118.134 185.51 U 111.718 325.837 U 138.43 336.799 1@bf56c52f" data-bx-origin="0.276596 0.493333" transform="matrix(0, 1, -1, 0, 361.639038, 158.279785)"></path>
<rect x="20.75" y="37.85" width="8.907" height="261.648" style="fill: rgb(54, 179, 126); stroke: rgb(54, 179, 126);"></rect>
<path d="M 445 292 m -18.588 0 a 18.588 18.588 0 1 0 37.176 0 a 18.588 18.588 0 1 0 -37.176 0 Z M 445 292 m -9.48 0 a 9.48 9.48 0 0 1 18.96 0 a 9.48 9.48 0 0 1 -18.96 0 Z" data-bx-shape="ring 445 292 9.48 9.48 18.588 18.588 1@0e1c052e" style="fill: rgb(54, 179, 126);" transform="matrix(-0.447214, 0.894427, -0.894427, -0.447214, 485.121338, -242.495087)"></path>
<rect x="171.125" y="111.515" width="8.907" height="43.191" style="fill: rgb(232, 181, 13); stroke: rgb(232, 181, 13);"></rect>
<path d="M 275.387 199.773 L 282.389 194.61 C 280.476 191.99 278.256 189.607 275.773 187.518 L 270.165 194.165 C 272.123 195.82 273.877 197.702 275.387 199.773 Z" style="fill: rgb(61, 129, 193);" transform="matrix(0, 1, -1, 0, 469.922516, -82.631508)"></path>
<path d="M 260.076 206.805 L 268.592 205.084 C 267.99 201.897 266.993 198.797 265.625 195.856 L 257.673 199.476 C 258.759 201.817 259.566 204.277 260.076 206.805 Z" style="fill: rgb(61, 129, 193);" transform="matrix(0, 1, -1, 0, 464.463013, -61.80201)"></path>
<path d="M 242.882 198.304 C 242.879 200.782 242.591 203.25 242.021 205.663 L 250.507 207.651 C 251.219 204.585 251.578 201.449 251.575 198.304 L 251.575 197.978 L 242.882 197.978 L 242.882 198.304 Z" style="fill: rgb(61, 129, 193);" transform="matrix(0, 1, -1, 0, 449.612488, -43.983505)"></path>
<path d="M 291.613 169.444 L 292.266 160.75 C 289.026 160.516 285.771 160.655 282.563 161.166 L 283.958 169.771 C 286.486 169.352 289.058 169.242 291.613 169.444 Z" style="fill: rgb(61, 129, 193);" transform="matrix(0, 1, -1, 0, 452.619934, -122.209053)"></path>
<path d="M 290.46 179.151 C 287.653 177.561 284.665 176.317 281.559 175.442 L 279.244 183.839 C 281.71 184.542 284.081 185.536 286.306 186.806 L 290.46 179.151 Z" style="fill: rgb(61, 129, 193);" transform="matrix(0, 1, -1, 0, 465.975983, -103.727989)"></path>
<path d="M 240.908 132.181 L 232.956 128.502 C 232.205 130.152 231.321 131.739 230.315 133.249 C 216.295 153.491 185.621 150.963 175.102 128.701 C 168.417 114.556 172.948 97.649 185.808 88.742 C 187.917 87.297 190.199 86.119 192.603 85.241 L 189.635 77.081 C 186.594 78.211 183.695 79.695 181.001 81.502 C 154.878 98.771 157.246 137.845 185.265 151.833 C 189.176 153.785 193.377 155.094 197.706 155.711 L 197.706 252.384 C 199.13 251.897 200.623 251.135 202.127 251.111 C 203.578 251.135 205.02 252.378 206.4 252.826 L 206.4 156.067 C 218.987 155.295 230.499 148.714 237.555 138.264 L 233.935 135.831 L 237.555 138.264 C 238.834 136.329 239.956 134.297 240.908 132.181 Z" style="fill: rgb(61, 129, 193);" transform="matrix(0, 1, -1, 0, 366.784332, -36.877342)"></path>
<g transform="matrix(2.967165, 0, 0, 2.967165, -75.658424, 23.078075)">
  <path d="M 108.97 42.76 L 111.41 42.76 L 111.41 50.56 L 108.97 50.56 L 108.97 42.76 Z" style="fill: rgb(193, 61, 61);"></path>
  <path d="M 108.97 52.27 L 111.41 52.27 L 111.41 54.47 L 108.97 54.47 L 108.97 52.27 Z" style="fill: rgb(193, 61, 61);"></path>
</g>
<path d="M 445 292 m -18.588 0 a 18.588 18.588 0 1 0 37.176 0 a 18.588 18.588 0 1 0 -37.176 0 Z M 445 292 m -9.48 0 a 9.48 9.48 0 0 1 18.96 0 a 9.48 9.48 0 0 1 -18.96 0 Z" data-bx-shape="ring 445 292 9.48 9.48 18.588 18.588 1@0e1c052e" style="fill: rgb(179, 54, 54);" transform="matrix(-0.447214, 0.894427, -0.894427, -0.447214, 560.267212, -102.345963)"></path>
<rect x="171.128" y="176.117" width="8.907" height="43.191" style="fill: rgb(232, 181, 13); stroke: rgb(232, 181, 13);"></rect>
</svg>
