<svg viewBox="-9.978 13.086 309.518 286.914" width="309.518" height="286.914" xmlns="http://www.w3.org/2000/svg">
<g>
  <path d="M 152 175 m -25.849 0 a 25.849 25.849 0 1 0 51.698 0 a 25.849 25.849 0 1 0 -51.698 0 Z M 152 175 m -13.183 0 a 13.183 13.183 0 0 1 26.366 0 a 13.183 13.183 0 0 1 -26.366 0 Z" data-bx-shape="ring 152 175 13.183 13.183 25.849 25.849 1@098bce56" style="fill: rgb(0, 184, 217); stroke: rgb(0, 184, 217);" transform="matrix(-0.581238, 0.813733, -0.813733, -0.581238, 461.158929, 27.174108)"></path>
  <path style="fill: rgba(216, 216, 216, 0); stroke-width: 11px; stroke: rgb(0, 184, 217);" d="M 184.221 63.61 L 187.23749999999998 63.699333333333335 C 190.254 63.788666666666664 196.287 63.96733333333333 199.19299999999998 72.76783333333334 C 202.09900000000002 81.56833333333333 201.87800000000001 98.99066666666666 205.72216666666668 107.83583333333333 C 209.56633333333335 116.681 217.47566666666668 116.949 221.43033333333332 117.08299999999998 L 225.385 117.217" data-bx-d="M 184.221 63.61 U 202.32 64.146 U 201.657 116.413 U 225.385 117.217 1@9a959392" transform="matrix(0, -1, 1, 0, 114.389492, 295.216496)"></path>
  <rect x="173" y="108.995" width="10" height="78.671" style="stroke: rgb(0, 184, 217); fill: rgb(0, 184, 217);"></rect>
</g>
<g>
  <path d="M 152 175 m -25.849 0 a 25.849 25.849 0 1 0 51.698 0 a 25.849 25.849 0 1 0 -51.698 0 Z M 152 175 m -13 0 a 13 13 0 0 1 26 0 a 13 13 0 0 1 -26 0 Z" data-bx-shape="ring 152 175 13 13 25.849 25.849 1@871ec2fe" style="fill: rgb(232, 181, 13); stroke: rgb(232, 181, 13);" transform="matrix(-0.581238, 0.813733, -0.813733, -0.581238, 359.596429, 27.174148)"></path>
  <rect x="122.635" y="69.832" width="11" height="109.652" style="stroke: rgb(232, 181, 13); fill: rgb(232, 181, 13);"></rect>
  <path style="fill: rgba(216, 216, 216, 0); stroke-width: 11px; stroke: rgb(232, 181, 13);" d="M 124.355 168.608 L 128.50883333333334 168.52366666666666 C 132.66266666666667 168.43933333333334 140.97033333333334 168.27066666666667 144.972 159.96283333333335 C 148.97366666666667 151.655 148.66933333333336 135.208 153.96266666666668 126.85799999999999 C 159.256 118.508 170.14700000000002 118.255 175.5925 118.12849999999999 L 181.038 118.002" data-bx-d="M 124.355 168.608 U 149.278 168.102 U 148.365 118.761 U 181.038 118.002 1@b8ddedc5" transform="matrix(0, -1, 1, 0, 9.391499, 296.001499)"></path>
</g>
<g>
  <path d="M 152 175 m -25.849 0 a 25.849 25.849 0 1 0 51.698 0 a 25.849 25.849 0 1 0 -51.698 0 Z M 152 175 m -13.183 0 a 13.183 13.183 0 0 1 26.366 0 a 13.183 13.183 0 0 1 -26.366 0 Z" data-bx-shape="ring 152 175 13.183 13.183 25.849 25.849 1@098bce56" style="stroke: rgb(54, 179, 126); fill: rgb(54, 179, 126);" transform="matrix(-0.581238, 0.813733, -0.813733, -0.581238, 256.831994, 27.17418)"></path>
  <path style="fill: rgba(216, 216, 216, 0); stroke-width: 11px; stroke: rgb(54, 179, 126);" d="M 30.614 117.217 L 33.6305 117.12766666666668 C 36.647 117.03833333333334 42.68 116.85966666666667 45.586000000000006 108.05916666666667 C 48.492 99.25866666666667 48.270999999999994 81.83633333333334 52.11516666666666 72.99116666666667 C 55.959333333333326 64.146 63.86866666666666 63.87800000000001 67.82333333333334 63.744 L 71.778 63.61" data-bx-d="M 30.614 117.217 U 48.713 116.681 U 48.05 64.414 U 71.778 63.61 1@8dfbe52a" transform="matrix(0, -1, 1, 0, -39.217501, 141.609503)"></path>
  <rect x="73" y="108.995" width="10" height="191.005" style="stroke: rgb(54, 179, 126); fill: rgb(54, 179, 126);"></rect>
</g>
<g>
  <g>
    <path d="M 278.432 243.651 L 287.341 237.083 C 284.906 233.749 282.079 230.719 278.923 228.06 L 271.788 236.517 C 274.28 238.623 276.507 241.016 278.432 243.651 Z" fill="#8273f1" style="" transform="matrix(0, 1, -1, 0, 515.419998, -43.709)"></path>
    <path d="M 258.953 252.598 L 269.788 250.409 C 269.021 246.354 267.753 242.409 266.013 238.668 L 255.895 243.274 C 257.277 246.253 258.304 249.382 258.953 252.598 Z" fill="#8273f1" style="" transform="matrix(0, 1, -1, 0, 508.474503, -17.208496)"></path>
    <path d="M 237.077 241.783 C 237.073 244.935 236.707 248.076 235.982 251.144 L 246.779 253.674 C 247.684 249.775 248.138 245.784 248.138 241.783 L 248.138 241.367 L 237.077 241.367 L 237.077 241.783 Z" fill="#8273f1" style="" transform="matrix(0, 1, -1, 0, 489.580498, 5.460503)"></path>
    <path d="M 299.074 205.067 L 299.904 194.007 C 295.786 193.709 291.641 193.886 287.56 194.535 L 289.334 205.482 C 292.554 204.946 295.824 204.807 299.074 205.067 Z" fill="#8273f1" style="" transform="matrix(0, 1, -1, 0, 493.406342, -94.057648)"></path>
    <path d="M 297.609 217.416 C 294.038 215.392 290.233 213.81 286.284 212.697 L 283.339 223.379 C 286.476 224.274 289.493 225.54 292.324 227.155 L 297.609 217.416 Z" fill="#8273f1" style="" transform="matrix(0, 1, -1, 0, 510.400002, -70.547997)"></path>
    <g transform="matrix(0, -1, 1, 0, 45.407761, 450.150757)">
      <path d="M 250.554 187.649 L 259.765 187.649 L 259.765 217.094 L 250.554 217.094 L 250.554 187.649 Z" style="fill: rgb(160, 31, 31);" transform="matrix(0, 1, -1, 0, 457.531006, -52.78801)"></path>
      <path d="M 225.223 198.219 L 234.435 198.219 L 234.435 206.524 L 225.223 206.524 L 225.223 198.219 Z" style="fill: rgb(160, 31, 31);" transform="matrix(0, 1, -1, 0, 432.2005, -27.457504)"></path>
    </g>
  </g>
  <g transform="matrix(0.967358, 0, 0, 0.967358, -33.030296, 3.107088)">
    <path d="M 311.549 194.691 L 301.091 189.852 C 300.103 192.026 298.944 194.114 297.618 196.096 C 279.179 222.718 238.836 219.397 225.002 190.114 C 216.21 171.511 222.169 149.279 239.082 137.56 C 241.86 135.66 244.861 134.115 248.018 132.956 L 244.116 122.224 C 240.12 123.715 236.307 125.666 232.76 128.039 C 198.407 150.754 201.521 202.141 238.368 220.537 C 243.515 223.108 249.041 224.829 254.73 225.637 L 254.73 283.51 C 256.607 282.87 258.566 282.53 260.545 282.495 C 262.457 282.53 264.35 282.846 266.164 283.432 L 266.164 226.106 C 282.718 225.091 297.863 216.439 307.139 202.691 L 302.379 199.491 L 307.139 202.691 C 308.825 200.151 310.3 197.474 311.549 194.691 Z" fill="#8273f1" style="" transform="matrix(0, 1, -1, 0, 463.023476, -57.289467)"></path>
  </g>
</g>
<path d="M 152 175 m -25.849 0 a 25.849 25.849 0 1 0 51.698 0 a 25.849 25.849 0 1 0 -51.698 0 Z M 152 175 m -13 0 a 13 13 0 0 1 26 0 a 13 13 0 0 1 -26 0 Z" data-bx-shape="ring 152 175 13 13 25.849 25.849 1@871ec2fe" style="stroke: rgb(160, 31, 31); fill: rgb(160, 31, 31);" transform="matrix(-0.581238, 0.813733, -0.813733, -0.581238, 359.697693, 177.804413)"></path>
<g>
  <path style="stroke-width: 11px; fill: rgba(0, 184, 217, 0); stroke: rgb(0, 184, 217);" d="M 99.658 208.005 L 103.81183333333333 208.1716666666667 C 107.96566666666666 208.33833333333334 116.27333333333333 208.67166666666665 120.27499999999999 225.08833333333337 C 124.27666666666669 241.505 123.97233333333334 274.005 129.26566666666668 290.50500000000005 C 134.559 307.005 145.45000000000002 307.505 150.8955 307.75500000000005 L 156.341 308.005" data-bx-d="M 99.658 208.005 U 124.581 209.005 U 123.668 306.505 U 156.341 308.005 1@fb19bda1" transform="matrix(0, -1, 1, 0, -130.005505, 386.004505)"></path>
  <rect x="173" y="210.345" width="10" height="28.771" style="stroke: rgb(0, 184, 217); fill: rgb(0, 184, 217);"></rect>
</g>
</svg>
